<?xml version="1.0" standalone="no"?>
<!DOCTYPE svg PUBLIC "-//W3C//DTD SVG 20010904//EN"
 "http://www.w3.org/TR/2001/REC-SVG-20010904/DTD/svg10.dtd">
<svg version="1.0" xmlns="http://www.w3.org/2000/svg"
 width="1448.000000pt" height="1086.000000pt" viewBox="0 0 1448.000000 1086.000000"
 preserveAspectRatio="xMidYMid meet">

<g transform="translate(0.000000,1086.000000) scale(0.100000,-0.100000)"
fill="#000000" stroke="none">
<path d="M6028 6637 c-40 -18 -69 -48 -89 -92 -17 -36 -19 -69 -18 -305 0
-328 8 -357 104 -401 37 -17 80 -19 668 -19 703 0 675 3 724 -71 30 -46 39
-105 23 -153 -15 -45 -69 -113 -491 -617 -107 -129 -325 -389 -484 -579 -159
-190 -354 -421 -434 -513 -80 -92 -156 -185 -168 -205 -22 -36 -23 -45 -23
-327 0 -261 2 -294 19 -331 22 -49 61 -79 122 -94 31 -8 460 -10 1464 -8 1576
3 1449 -2 1509 68 43 52 48 91 44 399 -3 305 -4 307 -56 364 -50 53 -71 54
-767 56 -722 2 -680 -2 -722 81 -46 89 -25 164 83 296 41 51 78 94 82 96 4 2
16 20 26 40 10 21 39 59 65 85 64 67 427 504 497 598 31 43 76 97 99 119 23
23 156 178 295 346 140 168 282 337 316 377 37 41 67 87 73 110 7 22 11 141
11 288 -1 311 -9 342 -105 386 -38 18 -102 19 -1440 18 -1054 0 -1407 -4
-1427 -12z"/>
<path d="M3428 6565 c-21 -19 -38 -38 -38 -41 0 -9 -278 -683 -707 -1714 -502
-1208 -520 -1251 -588 -1415 -31 -77 -80 -191 -107 -253 -27 -63 -48 -116 -45
-118 2 -2 28 1 56 8 49 11 54 15 78 62 46 92 174 276 262 380 238 276 575 514
976 687 81 35 112 54 118 71 5 13 15 37 23 55 9 22 10 33 2 35 -11 4 164 439
368 913 40 94 64 128 80 113 7 -8 70 -161 220 -533 57 -143 114 -277 125 -297
11 -21 29 -68 39 -105 10 -38 78 -214 150 -393 312 -775 410 -1020 410 -1030
0 -6 11 -22 25 -35 l24 -25 421 0 c407 0 421 1 440 20 11 11 20 29 20 40 0 20
-80 228 -280 730 -161 404 -312 794 -315 810 -1 8 -13 40 -27 70 -14 30 -33
78 -42 106 -9 27 -32 75 -51 105 -34 52 -55 106 -55 141 0 10 -69 190 -154
400 -166 415 -395 993 -446 1126 -21 55 -40 88 -57 99 -22 15 -77 17 -457 20
l-431 4 -37 -36z"/>
<path d="M10528 6560 c-90 -4 -111 -8 -127 -25 -11 -11 -88 -198 -171 -415
-259 -676 -294 -765 -305 -780 -7 -8 -17 -44 -23 -80 -8 -42 -22 -80 -42 -108
-16 -23 -30 -49 -30 -56 0 -13 -88 -253 -110 -301 -5 -11 -11 -40 -12 -65 l-3
-45 80 -12 c169 -27 437 -53 610 -60 l180 -6 22 49 c12 27 41 99 64 159 144
379 205 525 218 523 9 -2 47 -84 92 -198 43 -107 95 -233 115 -280 20 -47 38
-97 39 -112 1 -14 13 -40 28 -57 14 -17 27 -35 29 -41 12 -36 546 94 760 184
37 16 38 16 32 64 -4 26 -39 134 -80 240 -41 106 -74 198 -74 205 0 7 -14 35
-31 63 -18 27 -40 74 -51 104 -49 143 -405 1017 -420 1032 -19 19 12 18 -468
22 -118 1 -263 -1 -322 -4z"/>
<path d="M4600 6524 l-25 -15 25 7 c14 3 29 10 35 15 15 14 -7 10 -35 -7z"/>
<path d="M4848 5907 c-38 -15 -36 -29 2 -16 17 6 30 15 30 20 0 5 -1 9 -2 8
-2 -1 -15 -6 -30 -12z"/>
<path d="M12069 4604 c-27 -33 -163 -138 -272 -211 -62 -41 -181 -109 -265
-151 l-153 -75 7 -46 c4 -25 12 -57 19 -71 12 -25 121 -291 330 -810 71 -177
115 -272 131 -287 l25 -23 409 0 c408 0 409 0 430 22 11 12 20 30 20 40 0 11
-75 204 -166 431 -506 1255 -444 1104 -478 1160 -21 34 -24 36 -37 21z"/>
<path d="M9423 3952 c-21 -47 -174 -437 -297 -759 -36 -95 -66 -186 -66 -201
0 -63 -6 -62 453 -62 l416 0 24 23 c17 15 53 97 112 252 48 127 124 325 170
440 45 116 85 229 89 253 l6 42 -147 0 c-205 0 -572 28 -713 55 -22 4 -28 -2
-47 -43z"/>
</g>
</svg>
