<?xml version="1.0" standalone="no"?>
<!DOCTYPE svg PUBLIC "-//W3C//DTD SVG 20010904//EN"
 "http://www.w3.org/TR/2001/REC-SVG-20010904/DTD/svg10.dtd">
<svg version="1.0" xmlns="http://www.w3.org/2000/svg"
 width="1448.000000pt" height="1086.000000pt" viewBox="0 0 1448.000000 1086.000000"
 preserveAspectRatio="xMidYMid meet">

<g transform="translate(0.000000,1086.000000) scale(0.100000,-0.100000)"
fill="#000000" stroke="none">
<path d="M12695 5403 c-22 -14 -76 -54 -120 -88 -196 -152 -531 -351 -605
-359 -8 -1 -71 -29 -140 -63 -248 -122 -380 -161 -585 -173 -82 -5 -181 -14
-220 -20 -38 -5 -200 -13 -358 -17 -291 -6 -420 1 -602 32 -44 8 -125 19 -180
24 -55 6 -125 18 -155 26 -30 9 -122 29 -205 46 -363 73 -556 116 -920 204
-343 83 -333 82 -350 59 -30 -38 -35 -52 -22 -62 6 -6 152 -44 322 -86 545
-132 838 -193 1180 -245 392 -60 468 -65 885 -65 343 -1 403 2 548 22 493 67
877 204 1270 455 34 22 65 37 69 34 17 -18 -187 -277 -335 -425 -188 -189
-380 -329 -610 -445 -307 -156 -613 -247 -983 -294 -187 -23 -646 -23 -859 0
-323 36 -693 102 -1048 188 -274 66 -978 219 -1008 219 -2 0 -13 -18 -24 -40
l-21 -40 23 -10 c13 -5 84 -21 158 -35 135 -27 353 -75 810 -180 313 -72 594
-129 740 -150 63 -9 153 -24 200 -33 73 -15 155 -17 580 -17 475 0 500 1 625
23 274 50 536 131 714 221 53 26 113 54 133 60 20 7 65 35 100 63 35 27 95 68
133 91 39 22 97 61 130 86 33 26 82 59 108 75 27 15 96 75 154 133 185 186
327 369 467 597 60 98 66 112 66 162 0 63 -7 66 -65 27z"/>
<path d="M6350 5300 c-305 -27 -663 -104 -955 -206 -231 -81 -338 -128 -412
-179 -36 -25 -88 -57 -116 -72 -29 -14 -63 -33 -77 -43 -14 -9 -79 -46 -145
-82 -66 -36 -133 -72 -150 -81 -70 -39 -239 -96 -360 -121 -191 -40 -431 -108
-590 -167 -267 -98 -290 -107 -387 -163 -54 -30 -136 -73 -182 -95 -47 -21
-161 -91 -253 -154 -222 -152 -338 -266 -543 -534 -157 -206 -240 -342 -240
-395 0 -37 37 -75 81 -83 19 -3 240 -5 491 -3 441 3 457 4 484 23 19 15 44 61
83 155 189 451 450 769 946 1153 162 126 332 224 444 256 111 32 277 45 482
37 101 -4 204 -8 229 -8 187 0 691 -22 878 -39 125 -11 261 -23 302 -26 l75
-6 38 39 c20 21 37 41 37 44 0 6 -95 16 -425 45 -302 27 -511 35 -917 36 -433
2 -443 3 -419 47 14 26 76 63 266 160 158 81 471 191 732 257 337 86 656 120
1046 113 l237 -5 35 43 c23 27 31 45 24 49 -17 11 -623 15 -739 5z m-2350
-929 c0 -5 -21 -27 -47 -48 -263 -209 -511 -452 -645 -630 -109 -145 -208
-316 -289 -498 -38 -88 -75 -165 -81 -172 -8 -10 -100 -13 -443 -12 -237 0
-437 4 -443 8 -27 16 150 294 288 455 326 380 786 653 1435 852 167 52 225 63
225 45z"/>
</g>
</svg>
