<?xml version="1.0" standalone="no"?>
<!DOCTYPE svg PUBLIC "-//W3C//DTD SVG 20010904//EN"
 "http://www.w3.org/TR/2001/REC-SVG-20010904/DTD/svg10.dtd">
<svg version="1.0" xmlns="http://www.w3.org/2000/svg"
 width="1448.000000pt" height="1086.000000pt" viewBox="0 0 1448.000000 1086.000000"
 preserveAspectRatio="xMidYMid meet">

<g transform="translate(0.000000,1086.000000) scale(0.100000,-0.100000)"
fill="#000000" stroke="none">
<path d="M6853 9606 c-908 -507 -1013 -566 -1022 -585 -5 -9 6 -194 25 -426
45 -566 49 -635 35 -635 -13 0 -165 52 -391 135 -85 31 -191 69 -235 85 -44
15 -124 44 -178 64 l-98 36 -257 -99 c-141 -55 -378 -147 -527 -206 -148 -59
-283 -111 -300 -117 -41 -15 -55 -27 -55 -48 0 -9 32 -104 70 -209 38 -106 70
-198 70 -204 0 -7 -166 -63 -397 -135 -219 -67 -405 -126 -413 -131 -24 -13
-23 -49 1 -104 13 -29 60 -137 105 -242 l81 -190 35 -3 c68 -6 66 8 -23 214
-45 104 -87 203 -95 221 l-14 31 78 26 c98 32 619 194 691 214 83 25 83 27 -3
260 -42 111 -76 207 -76 212 0 4 24 18 53 29 77 29 702 271 851 329 l129 51
51 -21 c28 -11 112 -41 186 -68 74 -26 185 -66 245 -88 61 -22 211 -76 335
-120 309 -111 300 -107 300 -140 0 -15 14 -198 30 -407 17 -209 35 -451 42
-537 l11 -158 71 1 c39 1 61 4 50 6 -26 5 -26 4 -54 383 -35 485 -61 784 -69
804 -5 13 -37 29 -97 50 l-89 31 -17 205 c-9 113 -26 333 -38 490 -11 157 -23
303 -26 325 l-5 40 183 99 c245 133 619 341 1113 618 28 15 53 28 58 28 4 0 6
-693 5 -1540 l-3 -1540 55 0 55 0 -3 1546 c-2 1238 0 1545 10 1541 7 -3 186
-87 398 -187 522 -247 804 -378 1000 -467 91 -41 168 -78 172 -81 9 -9 -3
-152 -81 -1017 -33 -363 -67 -748 -76 -855 -9 -107 -22 -257 -29 -333 -7 -76
-10 -140 -7 -142 2 -3 23 -5 46 -5 l42 0 7 93 c7 98 76 888 101 1147 14 153
29 324 43 490 l7 85 324 3 323 2 -4 -32 c-3 -18 -20 -114 -38 -212 l-33 -179
23 -19 c21 -17 50 -18 421 -18 l399 0 -5 -22 c-3 -13 -21 -99 -41 -193 -19
-93 -37 -178 -40 -187 -5 -17 -28 -18 -304 -18 -343 0 -322 7 -314 -95 3 -33
13 -267 24 -520 11 -253 27 -613 35 -800 8 -187 19 -443 25 -570 17 -403 19
-425 42 -425 19 0 20 8 15 723 -3 534 -10 833 -25 1147 -12 234 -22 431 -22
437 0 10 236 11 1103 6 606 -3 1103 -6 1104 -7 1 -1 -14 -109 -33 -241 -31
-221 -161 -1154 -219 -1580 -17 -126 -25 -226 -25 -332 l0 -153 66 0 c59 0 65
2 59 18 -4 9 -17 44 -29 77 l-23 60 39 280 c52 378 224 1607 248 1774 24 161
24 165 4 185 -14 14 -104 16 -845 16 -456 0 -829 3 -829 8 0 12 37 187 70 337
31 140 31 140 11 156 -18 15 -67 17 -423 18 -221 1 -403 3 -404 4 -1 1 16 95
38 210 33 167 38 210 28 222 -11 13 -66 15 -371 15 l-359 0 0 43 c1 23 9 130
19 237 10 107 16 201 13 208 -6 16 -52 39 -387 195 -148 69 -355 166 -460 215
-104 49 -298 140 -430 202 -132 62 -284 134 -337 161 -54 27 -108 49 -120 48
-13 0 -227 -114 -475 -253z"/>
<path d="M7672 9075 c23 -25 416 -185 573 -233 184 -57 347 -103 351 -99 4 4
-177 84 -358 157 -65 27 -211 75 -325 108 -115 33 -217 64 -228 68 -11 4 -17
4 -13 -1z"/>
<path d="M7651 8635 c3 -2 81 -38 174 -80 190 -86 324 -134 536 -194 79 -22
159 -45 178 -50 54 -16 27 0 -67 39 -48 21 -150 64 -227 97 -77 33 -205 79
-285 103 -80 23 -179 53 -220 66 -73 23 -98 29 -89 19z"/>
<path d="M7660 8208 c9 -10 332 -159 399 -185 83 -31 483 -155 487 -150 2 2
-90 44 -204 95 -204 91 -348 144 -549 203 -57 16 -111 32 -120 36 -10 3 -16 4
-13 1z"/>
<path d="M7651 7786 c7 -6 269 -127 344 -158 74 -31 506 -170 512 -164 3 3
-346 164 -414 191 -41 16 -428 135 -439 135 -4 0 -5 -2 -3 -4z"/>
<path d="M4880 7753 c-30 -8 -104 -29 -165 -45 -100 -28 -451 -176 -441 -186
12 -11 391 115 523 174 183 82 190 87 83 57z"/>
<path d="M4950 7399 c-227 -70 -284 -91 -432 -160 -87 -40 -156 -74 -154 -76
6 -6 329 98 411 132 100 42 293 134 280 133 -5 0 -53 -13 -105 -29z"/>
<path d="M7630 7364 c0 -4 179 -90 310 -149 93 -42 517 -181 526 -173 4 4 -53
31 -326 154 -81 37 -510 178 -510 168z"/>
<path d="M4945 7039 c-143 -45 -463 -184 -451 -196 13 -13 365 114 491 176 77
38 136 69 130 70 -5 0 -82 -23 -170 -50z"/>
<path d="M7740 6893 c74 -35 171 -80 215 -98 103 -42 349 -118 370 -113 35 7
-293 146 -496 212 -114 36 -211 66 -215 65 -5 0 52 -30 126 -66z"/>
<path d="M5035 6715 c-88 -28 -197 -72 -297 -121 -87 -43 -156 -79 -155 -80 1
-2 72 19 157 46 99 32 209 77 305 124 83 41 146 74 140 74 -5 0 -73 -20 -150
-43z"/>
<path d="M5105 6371 c-81 -28 -194 -76 -268 -115 -70 -37 -127 -69 -127 -71 0
-4 146 40 235 72 65 23 315 149 315 159 0 7 -11 4 -155 -45z"/>
<path d="M5210 6073 c-74 -25 -173 -66 -220 -91 -47 -25 -104 -55 -127 -66
-77 -39 -44 -35 88 9 111 37 362 156 394 186 12 12 19 14 -135 -38z"/>
</g>
</svg>
