<?xml version="1.0" standalone="no"?>
<!DOCTYPE svg PUBLIC "-//W3C//DTD SVG 20010904//EN"
 "http://www.w3.org/TR/2001/REC-SVG-20010904/DTD/svg10.dtd">
<svg version="1.0" xmlns="http://www.w3.org/2000/svg"
 width="1448.000000pt" height="1086.000000pt" viewBox="0 0 1448.000000 1086.000000"
 preserveAspectRatio="xMidYMid meet">

<g transform="translate(0.000000,1086.000000) scale(0.100000,-0.100000)"
fill="#000000" stroke="none">
<path d="M11893 2718 c-30 -39 -23 -81 8 -52 19 17 22 17 69 0 52 -19 82 -13
94 20 16 42 -2 58 -35 28 -15 -14 -20 -14 -54 0 -45 19 -69 20 -82 4z"/>
<path d="M3096 2585 c-50 -18 -110 -76 -137 -134 -42 -89 -21 -229 44 -300 62
-68 218 -94 302 -51 47 24 45 24 45 5 0 -10 10 -15 30 -15 l30 0 0 86 c0 77 2
86 20 91 13 3 20 14 20 28 0 27 -22 32 -122 27 -64 -4 -68 -5 -68 -28 0 -21 5
-24 35 -24 33 0 35 -2 35 -35 0 -56 -52 -95 -127 -95 -80 0 -156 70 -169 157
-9 61 11 146 44 184 69 82 200 76 250 -11 11 -19 25 -30 40 -30 21 0 22 4 22
75 0 73 -1 75 -24 75 -13 0 -26 -5 -28 -12 -3 -9 -14 -7 -40 5 -44 21 -147 22
-202 2z"/>
<path d="M7840 2584 c-89 -38 -150 -142 -150 -253 0 -45 7 -72 31 -119 31 -64
61 -91 125 -118 112 -47 302 20 292 102 -5 43 -34 43 -70 0 -56 -68 -149 -72
-218 -10 -66 60 -84 169 -41 257 28 59 70 89 130 94 54 5 102 -20 129 -67 11
-19 25 -30 40 -30 21 0 22 4 22 75 0 73 -1 75 -24 75 -13 0 -26 -5 -28 -10 -2
-7 -16 -5 -40 5 -47 19 -152 19 -198 -1z"/>
<path d="M8355 2581 c-123 -56 -178 -182 -140 -320 33 -117 119 -181 242 -181
91 0 137 14 185 58 109 99 119 280 20 386 -67 72 -215 99 -307 57z m191 -66
c57 -33 88 -97 88 -180 0 -81 -38 -145 -106 -181 -61 -32 -154 -2 -198 62 -35
52 -41 163 -12 220 51 99 141 130 228 79z"/>
<path d="M9405 2581 c-49 -30 -68 -58 -73 -109 -8 -89 26 -124 169 -172 35
-12 70 -27 78 -33 39 -32 28 -98 -22 -123 -58 -30 -137 0 -163 62 -12 27 -20
35 -37 32 -20 -3 -22 -9 -25 -75 l-3 -73 30 0 c16 0 31 5 33 10 2 7 16 5 36
-6 46 -23 143 -21 184 3 101 59 105 208 7 259 -18 9 -64 27 -102 40 -38 13
-76 29 -83 35 -21 18 -17 73 7 95 45 40 146 11 159 -47 4 -17 14 -25 33 -27
l27 -3 0 70 c0 69 -1 71 -24 71 -14 0 -28 -5 -31 -10 -4 -7 -14 -5 -28 5 -31
22 -134 20 -172 -4z"/>
<path d="M11385 2581 c-50 -23 -109 -84 -130 -133 -20 -49 -20 -167 0 -215 9
-20 27 -52 41 -70 27 -36 110 -83 145 -83 18 0 21 -5 17 -30 -4 -23 -1 -30 12
-30 9 0 25 -9 35 -20 26 -28 3 -54 -41 -47 -33 6 -55 -15 -32 -29 22 -14 88
-7 108 11 37 33 22 105 -22 105 -11 0 -18 7 -18 20 0 16 7 20 30 20 40 0 125
44 146 74 19 30 15 70 -8 74 -9 2 -35 -15 -57 -37 -129 -129 -315 11 -272 204
20 89 83 145 161 145 46 0 106 -35 121 -70 10 -21 21 -30 36 -30 22 0 23 4 23
75 0 73 -1 75 -24 75 -13 0 -26 -5 -28 -10 -2 -7 -16 -5 -40 5 -52 21 -153 19
-203 -4z"/>
<path d="M12390 2579 c-92 -41 -140 -113 -148 -220 -7 -106 26 -178 110 -239
121 -88 311 -44 380 89 24 45 28 65 28 130 0 52 -6 89 -19 116 -24 52 -99 121
-147 134 -63 18 -154 13 -204 -10z m198 -66 c40 -30 70 -79 78 -129 19 -129
-46 -231 -154 -242 -86 -8 -150 46 -173 146 -22 95 21 205 95 238 41 19 120
12 154 -13z"/>
<path d="M1934 2568 c1 -15 9 -24 26 -28 l25 -6 0 -194 0 -194 -25 -6 c-18 -4
-25 -13 -25 -30 l0 -25 198 -3 197 -2 0 70 c0 67 -1 70 -24 70 -20 0 -26 -7
-33 -37 l-9 -38 -92 -3 -92 -3 0 92 0 92 70 -7 70 -6 0 40 0 40 -70 -6 -70 -7
0 82 0 82 88 -3 87 -3 9 -37 c8 -33 13 -38 38 -38 l29 0 -2 65 -2 65 -197 0
c-197 0 -197 0 -196 -22z"/>
<path d="M2390 2566 c0 -19 6 -25 28 -28 l27 -3 0 -195 0 -194 -25 -6 c-18 -4
-25 -13 -25 -30 0 -24 3 -25 83 -28 l82 -4 0 31 c0 26 -4 31 -25 31 l-25 0 0
161 c0 112 3 160 11 157 6 -2 61 -87 122 -188 110 -181 113 -185 146 -185 l33
0 2 225 3 224 24 6 c15 4 25 14 27 28 3 21 0 22 -82 22 -84 0 -86 0 -86 -24 0
-19 6 -25 28 -28 l27 -3 3 -133 c2 -105 0 -133 -10 -130 -7 2 -56 75 -108 161
l-95 157 -82 0 c-81 0 -83 -1 -83 -24z"/>
<path d="M3500 2565 c0 -20 5 -25 25 -25 l25 0 0 -200 0 -200 -25 0 c-21 0
-25 -5 -25 -29 l0 -29 158 -1 c87 -1 176 1 198 5 38 6 39 7 41 52 3 70 -3 87
-30 88 -21 2 -26 -4 -33 -40 l-9 -41 -93 -3 -92 -3 0 91 0 91 73 -2 72 -2 3
36 3 37 -76 -7 -76 -6 3 79 3 79 90 0 90 0 5 -35 c4 -29 10 -36 33 -38 l27 -3
0 65 0 66 -195 0 -195 0 0 -25z"/>
<path d="M3950 2565 c0 -20 5 -25 24 -25 21 0 24 -5 27 -43 2 -23 2 -113 1
-200 l-4 -157 -24 0 c-19 0 -24 -5 -24 -24 0 -22 5 -24 75 -31 84 -8 95 -4 95
31 0 19 -5 24 -25 24 l-25 0 0 160 c0 88 4 160 9 160 4 0 59 -85 121 -190 110
-187 113 -190 146 -190 l34 0 2 227 3 227 24 6 c16 4 25 13 26 28 2 21 -2 22
-82 22 -82 0 -83 0 -83 -25 0 -20 5 -25 25 -25 l25 0 0 -141 c0 -77 -4 -138
-8 -135 -5 3 -51 77 -103 165 l-94 160 -82 1 c-82 0 -83 0 -83 -25z"/>
<path d="M4480 2566 c0 -19 6 -25 28 -28 l27 -3 0 -195 0 -194 -25 -6 c-18 -4
-25 -13 -25 -30 0 -25 1 -25 95 -25 l95 0 3 28 c3 23 0 27 -22 27 -26 0 -26 0
-26 90 l0 91 103 -3 102 -3 0 -85 c0 -81 -1 -85 -22 -88 -18 -3 -23 -10 -23
-31 l0 -27 95 -3 95 -2 0 30 c0 26 -4 31 -25 31 l-25 0 2 198 c3 196 3 197 26
200 16 3 22 10 22 28 0 24 -1 24 -95 24 -94 0 -95 0 -95 -24 0 -18 6 -25 23
-28 20 -3 22 -9 25 -81 l3 -78 -108 3 c-124 3 -121 1 -108 105 6 48 9 53 31
53 19 0 24 5 24 25 l0 25 -100 0 c-99 0 -100 0 -100 -24z"/>
<path d="M5236 2558 c-7 -18 -46 -120 -86 -225 -66 -176 -75 -193 -96 -193
-20 0 -24 -5 -24 -31 l0 -32 53 7 c28 3 67 6 85 6 29 0 33 3 30 22 -2 14 -12
25 -28 28 -27 7 -27 14 -5 67 l14 33 89 0 89 0 17 -43 c21 -55 21 -57 -9 -57
-20 0 -25 -5 -25 -24 0 -14 5 -28 11 -32 6 -3 49 -3 95 1 79 6 84 8 84 30 0
17 -7 25 -22 27 -19 3 -35 35 -108 223 l-85 220 -33 3 c-29 3 -34 -1 -46 -30z
m73 -186 l30 -82 -70 0 c-51 0 -69 3 -69 13 0 13 24 87 50 152 14 36 16 33 59
-83z"/>
<path d="M5580 2565 c0 -20 5 -25 25 -25 l25 0 0 -200 0 -200 -25 0 c-20 0
-25 -5 -25 -24 0 -22 5 -25 53 -31 28 -4 72 -5 97 -3 40 3 45 6 48 30 3 23 -1
27 -25 30 -28 3 -28 3 -31 86 l-3 82 44 0 c24 0 50 -6 59 -12 9 -7 33 -54 53
-105 20 -51 42 -97 49 -102 7 -6 34 -8 64 -4 46 5 52 8 52 29 0 19 -5 24 -24
24 -21 0 -28 10 -51 70 -14 38 -35 80 -46 94 l-20 25 29 15 c60 31 81 147 36
198 -36 40 -75 48 -234 48 l-150 0 0 -25z m297 -59 c30 -35 29 -77 -1 -113
-22 -25 -31 -28 -88 -28 l-63 0 -3 74 c-4 103 -4 104 70 99 51 -4 65 -9 85
-32z"/>
<path d="M6118 2565 c3 -16 11 -25 23 -25 18 0 19 -11 21 -185 0 -102 1 -190
2 -197 1 -7 -10 -15 -24 -18 -18 -4 -25 -13 -25 -30 0 -25 2 -25 98 -28 l97
-3 0 30 c0 26 -4 31 -24 31 -31 0 -32 11 -28 227 4 165 5 172 25 175 13 2 21
11 22 26 2 21 -1 22 -95 22 l-97 0 5 -25z"/>
<path d="M6520 2565 c0 -18 5 -25 20 -25 11 0 20 -6 19 -12 0 -7 -33 -96 -72
-198 -68 -173 -74 -185 -100 -188 -21 -3 -27 -9 -27 -27 0 -13 4 -26 8 -29 4
-3 43 -2 85 1 73 6 77 7 77 29 0 19 -5 24 -25 24 -30 0 -30 2 -9 57 l17 43 89
0 c86 0 89 -1 98 -25 23 -61 23 -75 1 -75 -17 0 -21 -6 -21 -31 l0 -30 93 3
c91 3 92 3 92 28 0 18 -6 26 -22 28 -16 2 -27 17 -42 55 -138 360 -131 339
-110 344 12 3 19 14 19 29 0 24 -2 24 -95 24 -95 0 -95 0 -95 -25z m119 -181
c17 -47 31 -87 31 -90 0 -2 -32 -4 -71 -4 -53 0 -70 3 -67 13 47 131 62 167
68 167 5 0 22 -38 39 -86z"/>
<path d="M7070 2565 c0 -20 5 -25 25 -25 l25 0 0 -200 0 -200 -25 0 c-21 0
-25 -5 -25 -29 l0 -30 198 2 197 2 3 68 c3 62 1 67 -18 67 -11 0 -23 0 -27 1
-5 0 -12 -18 -16 -40 l-8 -41 -95 0 -94 0 0 91 0 91 73 -3 72 -4 3 38 3 38
-76 -7 -76 -7 3 79 3 79 90 0 90 0 9 -37 c8 -30 14 -38 33 -38 22 0 23 4 23
65 l0 65 -195 0 -195 0 0 -25z"/>
<path d="M8770 2565 c0 -20 5 -25 24 -25 33 0 35 -27 28 -312 -2 -87 -2 -88
-27 -88 -21 0 -25 -5 -25 -31 l0 -32 61 7 c34 3 73 6 85 6 19 0 24 5 24 24 0
19 -6 25 -26 28 l-27 3 -1 162 c-1 90 2 163 6 163 4 0 60 -88 124 -195 114
-192 116 -195 150 -195 l34 0 0 230 0 230 25 0 c20 0 25 5 25 25 0 25 -1 25
-83 25 -80 0 -84 -1 -82 -22 1 -15 10 -24 26 -28 24 -6 24 -7 27 -138 1 -73
-1 -132 -6 -132 -5 0 -51 72 -103 159 l-94 160 -82 0 c-82 1 -83 1 -83 -24z"/>
<path d="M9742 2530 c-4 -71 0 -79 33 -72 18 3 25 11 25 26 0 40 22 58 65 54
l40 -3 -1 -195 0 -195 -28 -3 c-23 -3 -27 -8 -24 -30 l3 -27 95 1 c94 1 95 2
98 27 3 21 -1 26 -24 29 l-28 3 -1 195 0 195 47 3 c45 3 48 1 54 -25 13 -59
14 -60 39 -55 24 4 25 8 25 68 l0 64 -208 0 -207 0 -3 -60z"/>
<path d="M10210 2565 c0 -20 5 -25 24 -25 23 0 24 -3 30 -92 4 -51 5 -140 4
-198 -3 -102 -4 -104 -28 -110 -18 -4 -25 -13 -25 -30 0 -22 5 -25 44 -28 25
-2 69 -1 98 3 48 6 53 9 53 31 0 19 -5 24 -25 24 -25 0 -25 1 -25 85 l0 85 36
0 c19 0 43 -4 53 -10 10 -5 38 -55 61 -110 l42 -100 54 0 c30 0 57 -1 62 -2 4
-2 8 9 10 24 3 22 -1 27 -24 30 -24 3 -32 12 -52 63 -13 33 -35 74 -48 92
l-24 32 27 13 c94 46 94 186 -1 229 -34 15 -67 19 -193 19 l-153 0 0 -25z
m278 -31 c26 -7 52 -51 52 -88 0 -14 -11 -37 -24 -52 -20 -24 -32 -28 -90 -32
-79 -5 -81 -3 -71 103 l7 75 51 0 c29 0 62 -3 75 -6z"/>
<path d="M10727 2566 c3 -16 13 -26 27 -28 20 -3 21 -8 26 -183 3 -117 9 -188
17 -202 45 -78 204 -104 282 -46 56 42 62 67 64 255 l2 173 28 3 c21 3 27 9
27 28 0 24 -1 24 -91 24 -88 0 -90 -1 -87 -22 2 -14 12 -24 28 -28 l25 -6 3
-154 c3 -171 -4 -202 -49 -225 -47 -25 -96 -19 -130 14 l-29 29 0 171 0 171
25 0 c20 0 25 5 25 25 0 25 0 25 -99 25 l-98 0 4 -24z"/>
<path d="M11880 2565 c0 -18 5 -25 20 -25 11 0 20 -6 20 -12 -1 -7 -34 -96
-74 -198 -63 -157 -77 -186 -97 -190 -15 -4 -25 -14 -27 -28 -3 -20 1 -22 57
-24 34 -1 71 -2 84 -2 17 -1 23 5 25 27 3 23 0 27 -22 27 -30 0 -33 15 -12 65
l15 35 91 0 91 0 14 -33 c22 -53 22 -60 -5 -67 -18 -4 -25 -13 -25 -30 0 -25
1 -25 95 -25 l95 0 3 28 c3 23 0 27 -21 27 -22 0 -29 9 -52 73 -15 39 -49 128
-76 197 -26 69 -51 138 -54 153 -7 26 -9 27 -76 27 -67 0 -69 -1 -69 -25z
m115 -172 c16 -43 30 -84 33 -90 3 -10 -15 -13 -68 -13 -53 0 -71 3 -68 13 47
131 62 167 68 167 4 0 20 -35 35 -77z"/>
</g>
</svg>
